<svg xmlns="http://www.w3.org/2000/svg" width="32" height="32"><defs><symbol id="bubble" viewBox="0 0 32 32"><path d="M16 2c8.837 0 16 5.82 16 13s-7.163 13-16 13a19.66 19.66 0 0 1-2.495-.158C10.068 31.279 5.966 31.895 2 31.986v-.841C4.142 30.096 6 28.184 6 26c0-.305-.024-.604-.068-.897C2.313 22.72 0 19.079 0 15 0 7.82 7.163 2 16 2z"/></symbol><symbol id="search" viewBox="0 0 32 32"><path d="m31.008 27.231-7.58-6.447c-.784-.705-1.622-1.029-2.299-.998a11.954 11.954 0 0 0 2.87-7.787c0-6.627-5.373-12-12-12s-12 5.373-12 12 5.373 12 12 12c2.972 0 5.691-1.081 7.787-2.87-.031.677.293 1.515.998 2.299l6.447 7.58c1.104 1.226 2.907 1.33 4.007.23s.997-2.903-.23-4.007zM12 20a8 8 0 1 1 0-16 8 8 0 0 1 0 16z"/></symbol><symbol id="eye" viewBox="0 0 32 32"><path d="M16 6C9.021 6 2.972 10.064 0 16c2.972 5.936 9.021 10 16 10s13.027-4.064 16-10c-2.972-5.936-9.021-10-16-10zm7.889 5.303A15.212 15.212 0 0 1 28.559 16a15.223 15.223 0 0 1-4.67 4.697C21.527 22.204 18.799 23 16 23s-5.527-.796-7.889-2.303A15.212 15.212 0 0 1 3.441 16a15.223 15.223 0 0 1 5.041-4.925 8 8 0 1 0 15.036 0c.124.074.248.15.371.228zM16 13a3 3 0 1 1-6 0 3 3 0 0 1 6 0z"/></symbol><symbol id="like" viewBox="0 0 32 32"><path d="M23.6 2c-3.363 0-6.258 2.736-7.599 5.594C14.659 4.736 11.764 2 8.4 2 3.763 2 0 5.764 0 10.401c0 9.433 9.516 11.906 16.001 21.232C22.131 22.365 32 19.533 32 10.401 32 5.764 28.237 2 23.6 2z"/></symbol><symbol id="download" viewBox="0 0 32 32"><path d="m16 31 15-15h-9V0H10v16H1z"/></symbol><symbol id="infinite" viewBox="0 0 32 32"><path d="M24.5 23.5a7.448 7.448 0 0 1-5.303-2.197L16 18.107l-3.196 3.196c-1.417 1.417-3.3 2.197-5.303 2.197s-3.887-.78-5.304-2.197C.78 19.886 0 18.003 0 16s.78-3.887 2.197-5.304c1.417-1.417 3.3-2.197 5.304-2.197s3.887.78 5.303 2.197L16 13.892l3.196-3.196c1.417-1.417 3.3-2.197 5.303-2.197s3.887.78 5.303 2.197c1.417 1.417 2.197 3.3 2.197 5.304s-.78 3.887-2.197 5.303a7.448 7.448 0 0 1-5.303 2.197zm-3.196-4.303c.854.853 1.989 1.324 3.196 1.323s2.342-.47 3.196-1.324c.854-.854 1.324-1.989 1.324-3.196s-.47-2.342-1.324-3.196c-.854-.854-1.989-1.324-3.196-1.324s-2.342.47-3.196 1.324L18.108 16l3.196 3.197zM7.5 11.48c-1.207 0-2.342.47-3.196 1.324S2.98 14.793 2.98 16s.47 2.342 1.324 3.196S6.293 20.52 7.5 20.52a4.49 4.49 0 0 0 3.196-1.324L13.892 16l-3.196-3.196A4.49 4.49 0 0 0 7.5 11.48z"/></symbol></defs></svg>